<svg width="16" height="16" viewBox="0 0 16 16" fill="none" xmlns="http://www.w3.org/2000/svg">
<path d="M13.032 4.84471C13.1429 4.70919 13.226 4.55315 13.2766 4.38551C13.3271 4.21787 13.3442 4.04191 13.3268 3.86768C13.3093 3.69345 13.2578 3.52435 13.175 3.37005C13.0922 3.21575 12.9799 3.07926 12.8443 2.96838C12.7088 2.8575 12.5528 2.7744 12.3851 2.72382C12.2175 2.67325 12.0415 2.65619 11.8673 2.67361C11.6931 2.69104 11.524 2.74261 11.3697 2.82539C11.2154 2.90816 11.0789 3.02052 10.968 3.15605L5.77733 9.50005L4.13333 8.26671C3.99326 8.16166 3.83386 8.08522 3.66424 8.04176C3.49462 7.99831 3.31811 7.98869 3.14477 8.01345C2.97144 8.03821 2.80467 8.09687 2.65401 8.18608C2.50334 8.27529 2.37172 8.3933 2.26667 8.53338C2.16161 8.67346 2.08517 8.83286 2.04172 9.00247C1.99826 9.17209 1.98864 9.34861 2.0134 9.52194C2.06341 9.87201 2.25044 10.1879 2.53333 10.4L4.68867 12.0167C5.1013 12.3263 5.61758 12.4644 6.12965 12.4023C6.64173 12.3402 7.11 12.0826 7.43667 11.6834L13.032 4.84471Z" stroke="white" stroke-linecap="round"/>
</svg>
